<?xml version="1.0" encoding="UTF-8" standalone="no"?>
<!-- Generator: Adobe Illustrator 19.0.0, SVG Export Plug-In . SVG Version: 6.00 Build 0)  -->

<svg
   xmlns:dc="http://purl.org/dc/elements/1.1/"
   xmlns:cc="http://creativecommons.org/ns#"
   xmlns:rdf="http://www.w3.org/1999/02/22-rdf-syntax-ns#"
   xmlns:svg="http://www.w3.org/2000/svg"
   xmlns="http://www.w3.org/2000/svg"
   xmlns:sodipodi="http://sodipodi.sourceforge.net/DTD/sodipodi-0.dtd"
   xmlns:inkscape="http://www.inkscape.org/namespaces/inkscape"
   version="1.1"
   id="Capa_1"
   x="0px"
   y="0px"
   viewBox="0 0 128 128"
   xml:space="preserve"
   sodipodi:docname="server.svg"
   width="128"
   height="128"
   inkscape:version="0.92.3 (2405546, 2018-03-11)"><metadata
   id="metadata1151"><rdf:RDF><cc:Work
       rdf:about=""><dc:format>image/svg+xml</dc:format><dc:type
         rdf:resource="http://purl.org/dc/dcmitype/StillImage" /><dc:title></dc:title></cc:Work></rdf:RDF></metadata><defs
   id="defs1149" /><sodipodi:namedview
   pagecolor="#ffffff"
   bordercolor="#666666"
   borderopacity="1"
   objecttolerance="10"
   gridtolerance="10"
   guidetolerance="10"
   inkscape:pageopacity="0"
   inkscape:pageshadow="2"
   inkscape:window-width="1920"
   inkscape:window-height="1017"
   id="namedview1147"
   showgrid="false"
   showborder="false"
   inkscape:zoom="0.50395799"
   inkscape:cx="-12.8979"
   inkscape:cy="234.1465"
   inkscape:window-x="-8"
   inkscape:window-y="-8"
   inkscape:window-maximized="1"
   inkscape:current-layer="g1726" />


























<g
   id="g1726"
   transform="matrix(0.27333315,0,0,0.27333315,9.7453292,7.3242188e-7)"><g
     id="g1757"
     transform="matrix(1.8238976,0,0,1.8238976,-228.5655,-392.08054)"><rect
       x="147.543"
       y="273.04599"
       style="fill:#2f4859"
       width="179.468"
       height="140.66299"
       id="rect1086" /><g
       id="g1096">
	<path
   inkscape:connector-curvature="0"
   style="fill:#64798a"
   d="M 350.035,289.924 H 118.257 c -6.897,0 -12.488,-5.591 -12.488,-12.488 v -46.55 c 0,-6.897 5.591,-12.488 12.488,-12.488 h 231.778 c 6.897,0 12.488,5.591 12.488,12.488 v 46.55 c 0,6.897 -5.591,12.488 -12.488,12.488 z"
   id="path1090" />
	<path
   inkscape:connector-curvature="0"
   style="fill:#64798a"
   d="M 350.035,379.108 H 118.257 c -6.897,0 -12.488,-5.591 -12.488,-12.488 v -46.55 c 0,-6.897 5.591,-12.488 12.488,-12.488 h 231.778 c 6.897,0 12.488,5.591 12.488,12.488 v 46.55 c 0,6.897 -5.591,12.488 -12.488,12.488 z"
   id="path1092" />
	<path
   inkscape:connector-curvature="0"
   style="fill:#64798a"
   d="M 350.035,468.293 H 118.257 c -6.897,0 -12.488,-5.591 -12.488,-12.488 v -46.55 c 0,-6.897 5.591,-12.488 12.488,-12.488 h 231.778 c 6.897,0 12.488,5.591 12.488,12.488 v 46.55 c 0,6.897 -5.591,12.488 -12.488,12.488 z"
   id="path1094" />
</g><path
       inkscape:connector-curvature="0"
       style="fill:#f6c358"
       d="m 145.572,266.649 h -12.488 c -3.448,0 -6.244,-2.796 -6.244,-6.244 v -12.488 c 0,-3.448 2.795,-6.244 6.244,-6.244 h 12.488 c 3.448,0 6.244,2.795 6.244,6.244 v 12.488 c 0,3.449 -2.795,6.244 -6.244,6.244 z"
       id="path1098" /><path
       inkscape:connector-curvature="0"
       style="fill:#44c4a1"
       d="m 189.28,266.649 h -12.488 c -3.448,0 -6.244,-2.796 -6.244,-6.244 v -12.488 c 0,-3.448 2.796,-6.244 6.244,-6.244 h 12.488 c 3.448,0 6.244,2.795 6.244,6.244 v 12.488 c 0,3.449 -2.796,6.244 -6.244,6.244 z"
       id="path1100" /><rect
       x="241.577"
       y="247.94501"
       style="fill:#d5d6db"
       width="99.902"
       height="12.488"
       id="rect1102" /><path
       inkscape:connector-curvature="0"
       style="fill:#f6c358"
       d="m 145.572,355.834 h -12.488 c -3.448,0 -6.244,-2.795 -6.244,-6.244 v -12.488 c 0,-3.448 2.795,-6.244 6.244,-6.244 h 12.488 c 3.448,0 6.244,2.795 6.244,6.244 v 12.488 c 0,3.448 -2.795,6.244 -6.244,6.244 z"
       id="path1104" /><path
       inkscape:connector-curvature="0"
       style="fill:#44c4a1"
       d="m 189.28,355.834 h -12.488 c -3.448,0 -6.244,-2.795 -6.244,-6.244 v -12.488 c 0,-3.448 2.796,-6.244 6.244,-6.244 h 12.488 c 3.448,0 6.244,2.795 6.244,6.244 v 12.488 c 0,3.448 -2.796,6.244 -6.244,6.244 z"
       id="path1106" /><rect
       x="241.577"
       y="337.108"
       style="fill:#d5d6db"
       width="99.902"
       height="12.488"
       id="rect1108" /><path
       inkscape:connector-curvature="0"
       style="fill:#f6c358"
       d="m 145.572,445.018 h -12.488 c -3.448,0 -6.244,-2.796 -6.244,-6.244 v -12.488 c 0,-3.448 2.795,-6.244 6.244,-6.244 h 12.488 c 3.448,0 6.244,2.796 6.244,6.244 v 12.488 c 0,3.448 -2.795,6.244 -6.244,6.244 z"
       id="path1110" /><path
       inkscape:connector-curvature="0"
       style="fill:#44c4a1"
       d="m 189.28,445.018 h -12.488 c -3.448,0 -6.244,-2.796 -6.244,-6.244 v -12.488 c 0,-3.448 2.796,-6.244 6.244,-6.244 h 12.488 c 3.448,0 6.244,2.796 6.244,6.244 v 12.488 c 0,3.448 -2.796,6.244 -6.244,6.244 z"
       id="path1112" /><rect
       x="241.577"
       y="426.271"
       style="fill:#d5d6db"
       width="99.902"
       height="12.488"
       id="rect1114" /><g
       id="g1116">
</g><g
       id="g1118">
</g><g
       id="g1120">
</g><g
       id="g1122">
</g><g
       id="g1124">
</g><g
       id="g1126">
</g><g
       id="g1128">
</g><g
       id="g1130">
</g><g
       id="g1132">
</g><g
       id="g1134">
</g><g
       id="g1136">
</g><g
       id="g1138">
</g><g
       id="g1140">
</g><g
       id="g1142">
</g><g
       id="g1144">
</g></g></g>
</svg>