<?xml version="1.0" encoding="utf-8"?>
<!-- Generator: Adobe Illustrator 16.0.0, SVG Export Plug-In . SVG Version: 6.00 Build 0)  -->
<!DOCTYPE svg PUBLIC "-//W3C//DTD SVG 1.1//EN" "http://www.w3.org/Graphics/SVG/1.1/DTD/svg11.dtd">
<svg version="1.1" id="Layer_1" xmlns="http://www.w3.org/2000/svg" xmlns:xlink="http://www.w3.org/1999/xlink" x="0px" y="0px"
	 width="200px" height="200px" viewBox="0 0 200 200" enable-background="new 0 0 200 200" xml:space="preserve">
<g id="Layer_3">
</g>
<g>
	<path fill-rule="evenodd" clip-rule="evenodd" fill="#393939" d="M100.206,59.661c-0.17,0.159-0.339,0.318-0.508,0.477
		c-0.235-0.074-0.438-0.2-0.607-0.38c-3.509-4.148-5.665-9.124-8.295-13.793C84.333,34.487,77.868,23.01,71.397,11.537
		c-0.833-1.478-1.465-2.938-1.516-4.631c0.675-0.945,1.676-0.509,2.515-0.51c18.402-0.029,36.803-0.027,55.204-0.007
		c0.869,0,1.842-0.322,2.586,0.467c0.094,1.277-0.298,2.386-0.928,3.512c-8.583,15.346-17.294,30.62-25.812,46.003
		C102.659,57.791,101.61,58.883,100.206,59.661z"/>
	<path fill-rule="evenodd" clip-rule="evenodd" fill="#393939" d="M130.58,192.475c-0.692,0.904-1.687,0.506-2.534,0.506
		c-18.399,0.026-36.798,0.026-55.196,0.002c-0.853-0.002-1.845,0.383-2.535-0.522c-0.041-2.937,1.843-5.096,3.157-7.428
		c7.867-13.975,15.691-27.974,23.574-41.939c0.796-1.41,1.687-2.618,3.159-3.335c0.103-0.087,0.222-0.132,0.355-0.137
		c0.123,0.008,0.245,0.014,0.366,0.021c1.741,0.757,2.415,2.443,3.248,3.916c8.202,14.532,16.34,29.099,24.569,43.615
		C129.67,188.809,130.741,190.441,130.58,192.475z"/>
	<path fill-rule="evenodd" clip-rule="evenodd" fill="#343434" d="M100.559,139.621c7.438-13.291,14.869-26.586,22.31-39.875
		c2.423-4.329,4.867-8.645,7.31-12.978c1.034,0.508,1.26,1.46,1.691,2.224c9.154,16.224,18.297,32.455,27.396,48.71
		c0.419,0.751,1.565,1.454,0.681,2.601c-1.418,0.512-2.886,0.647-4.384,0.647c-16.683,0.003-33.365,0.011-50.049-0.005
		c-1.663-0.002-3.307-0.052-4.697-1.149C100.732,139.735,100.647,139.677,100.559,139.621z"/>
	<path fill-rule="evenodd" clip-rule="evenodd" fill="#343434" d="M99.631,59.56c0.023,0.193,0.044,0.385,0.067,0.578
		C93.121,71.91,86.55,83.688,79.966,95.457c-3.189,5.702-6.403,11.388-9.779,17.39c-0.552-0.865-0.994-1.489-1.366-2.151
		c-9.22-16.37-18.439-32.741-27.622-49.131c-0.397-0.708-1.36-1.358-0.692-2.411c1.553-0.606,3.169-0.758,4.824-0.758
		c16.466,0.002,32.93-0.011,49.395,0.015C96.438,58.413,98.204,58.293,99.631,59.56z"/>
	<path fill-rule="evenodd" clip-rule="evenodd" fill="#676767" d="M100.204,139.758c-5.239,9.409-10.464,18.825-15.721,28.223
		c-4.167,7.45-8.374,14.876-12.56,22.313c-0.445,0.792-0.783,1.658-1.609,2.166c-2.299-3.151-3.957-6.683-5.867-10.06
		c-7.546-13.336-15.031-26.705-22.538-40.063c-1.469-2.615-1.465-2.632,1.379-2.63C62.26,139.721,81.232,139.74,100.204,139.758z"/>
	<path fill-rule="evenodd" clip-rule="evenodd" fill="#676767" d="M100.206,59.661c6.419-11.469,12.836-22.939,19.261-34.405
		c2.706-4.832,5.417-9.663,8.147-14.48c0.771-1.36,1.41-2.813,2.572-3.919c3.736,6.524,7.503,13.034,11.204,19.579
		c5.7,10.082,11.356,20.187,17.029,30.284c1.648,2.935,1.645,2.943-1.615,2.944C137.938,59.663,119.072,59.662,100.206,59.661z"/>
	<path fill-rule="evenodd" clip-rule="evenodd" fill="#1D1D1D" d="M100.816,139.796c18.921-0.023,37.844-0.047,56.764-0.069
		c0.836-0.002,1.654,0.07,2.366,0.576c-5.102,9.149-10.173,18.314-15.31,27.443c-4.65,8.264-9.368,16.488-14.057,24.729
		c-3.33-4.653-5.777-9.826-8.609-14.771c-6.698-11.698-13.263-23.473-19.868-35.226
		C101.618,141.616,101.242,140.691,100.816,139.796z"/>
	<path fill-rule="evenodd" clip-rule="evenodd" fill="#1D1D1D" d="M99.631,59.56c-18.991,0.021-37.983,0.042-56.975,0.063
		c-0.751,0.001-1.486-0.073-2.15-0.469C47.76,46.18,55.002,33.202,62.271,20.238c2.503-4.463,5.071-8.889,7.61-13.333
		c2.932,3.822,4.946,8.193,7.308,12.348c7.398,13.015,14.677,26.097,21.993,39.158C99.382,58.767,99.484,59.175,99.631,59.56z"/>
</g>
</svg>
